<svg xmlns="http://www.w3.org/2000/svg" version="1.1" xmlns:xlink="http://www.w3.org/1999/xlink" width="512" height="512" x="0" y="0" viewBox="0 0 64 64" style="enable-background:new 0 0 512 512" xml:space="preserve" class=""><g><path d="M50.9 25.2c-1.1-.6-2.2-1-3.4-1.1l10.9-1c-2-2-4.8-3.1-7.9-2.8-1.6.2-3 .7-4.2 1.4.8-1.3 1.4-2.8 1.6-4.4.3-3-.8-5.9-2.8-7.9l-1 10.1c-.2-1.1-.5-2.3-1.1-3.3-1.5-2.7-4-4.4-6.8-4.9l5.7 10.2c-1.2-.6-2.6-.8-4-.8-2.6.2-4.9 1.5-6.3 3.4l10-.6c-8.3 7.4-10.8 20-11.4 24.3-.5 0-.9 0-1.4.1-.5-3.6-2.5-13.5-9-19.5l7.7.5c-1.2-1.6-3-2.7-5.1-2.8-1.2-.1-2.3.2-3.3.6l4.6-8.3c-2.2.4-4.3 1.8-5.5 4-.5.9-.8 1.8-.9 2.7l-.8-8.2c-1.6 1.6-2.5 3.9-2.3 6.4.1 1.3.6 2.6 1.3 3.6-1-.6-2.2-1-3.4-1.2-2.5-.2-4.8.7-6.4 2.3l8.8.9c-.9.1-1.9.4-2.8.9-2.2 1.2-3.5 3.2-4 5.5l8.3-4.6c-.4 1-.7 2.1-.6 3.2.1 2.1 1.2 4 2.8 5.1l-.5-8.4c5.7 5.3 7.5 14.3 8 17.6-5.7.9-10.6 3.2-14.2 6.4h39.8c-4.4-3.9-10.9-6.5-18.2-6.8.7-4.3 3-15.5 10.3-22l-.6 10.8c1.9-1.4 3.3-3.7 3.4-6.3.1-1.4-.2-2.8-.7-4L55.8 32c-.6-2.8-2.3-5.3-4.9-6.8z" fill="#ff9100" opacity="1" data-original="#000000" class=""></path></g></svg>