<svg id="Layer_1" enable-background="new 0 0 512 512" height="512" viewBox="0 0 512 512" width="512" xmlns="http://www.w3.org/2000/svg" xmlns:xlink="http://www.w3.org/1999/xlink"><linearGradient id="SVGID_1_" gradientUnits="userSpaceOnUse" x1="253.319" x2="253.319" y1="227" y2="0"><stop offset="0" stop-color="#ffedad"/><stop offset="1" stop-color="#ffffe5"/></linearGradient><linearGradient id="SVGID_00000054266905915436340620000008032851019518511530_" gradientUnits="userSpaceOnUse" x1="256.028" x2="256.028" y1="512" y2="0"><stop offset="0" stop-color="#fd5900"/><stop offset="1" stop-color="#ffde00"/></linearGradient><g><path d="m22.885 100.913 51.234-93.14c3.622-6.585 11.557-9.473 18.564-6.757l99.117 38.417c12.914 5.006 12.725 23.344-.291 28.082l-150.351 54.723c-13.015 4.737-24.949-9.189-18.273-21.325zm430.06 47.892c-2.769-4.245-7.495-6.805-12.563-6.805h-368.707c-5.069 0-9.794 2.56-12.563 6.805-15.678 24.035-26.7 50.498-32.722 78.195h459.274c-6.021-27.697-17.043-54.16-32.719-78.195z" fill="url(#SVGID_1_)"/><path d="m485.665 227c3.548 16.32 5.363 33.067 5.363 50 0 62.771-24.444 121.785-68.83 166.17-44.386 44.386-103.4 68.83-166.17 68.83-62.771 0-121.785-24.444-166.17-68.83-44.386-44.385-68.83-103.399-68.83-166.17 0-16.933 1.815-33.68 5.363-50zm-355.236-137.254-28.191 10.261 15.284 41.993h31.925zm257.928-21.653 93.475-39.26c7.638-3.208 11.229-12 8.021-19.638-3.208-7.638-12-11.229-19.638-8.021l-100.001 42c-4.132 1.735-7.271 5.227-8.559 9.519l-26.791 89.307h31.322z" fill="url(#SVGID_00000054266905915436340620000008032851019518511530_)"/></g></svg>